<?xml version="1.0" encoding="UTF-8"?>
<svg xmlns="http://www.w3.org/2000/svg" xmlns:xlink="http://www.w3.org/1999/xlink" width="124px" height="124px" viewBox="0 0 124 124" version="1.1">
<g id="surface1">
<path style=" stroke:none;fill-rule:nonzero;fill:CurrentColor;fill-opacity:1;" d="M 102.75 7.144531 C 102.203125 7.144531 101.65625 7.445312 101.234375 7.992188 C 101.054688 8.296875 100.8125 9.382812 100.871094 9.625 L 100.992188 10.050781 C 101.007812 10.460938 101.070312 10.867188 101.171875 11.261719 L 101.234375 11.5625 C 101.441406 12.5625 101.683594 13.550781 101.960938 14.53125 C 102.152344 15.226562 102.292969 15.933594 102.382812 16.652344 L 102.445312 16.953125 L 102.566406 17.4375 L 102.625 18.46875 C 102.953125 20.796875 102.929688 23.164062 102.566406 25.492188 C 102.398438 26.578125 102.238281 27.667969 102.082031 28.757812 C 101.953125 29.636719 101.773438 30.507812 101.539062 31.363281 L 101.539062 31.421875 L 101.476562 31.789062 L 101.355469 32.148438 L 101.234375 32.453125 C 101.234375 32.695312 101.113281 33.058594 101.054688 33 L 100.992188 33.058594 L 100.992188 33.179688 L 100.871094 33.058594 L 100.871094 33.117188 C 100.992188 33.300781 100.75 33.117188 100.570312 32.816406 L 100.265625 32.390625 C 99.449219 31.023438 98.855469 29.53125 98.507812 27.972656 C 98.304688 27.316406 98.144531 26.648438 98.023438 25.972656 L 97.964844 25.734375 C 97.785156 24.867188 97.542969 24.019531 97.238281 23.191406 L 97.238281 23.007812 L 97.179688 22.886719 C 96.878906 22.175781 96.613281 21.445312 96.390625 20.707031 L 96.328125 20.523438 L 96.210938 20.28125 L 96.148438 20.101562 L 95.601562 18.953125 C 95.195312 17.996094 94.730469 17.066406 94.210938 16.164062 L 94.210938 16.105469 L 94.03125 16.046875 L 94.03125 15.921875 L 93.847656 15.679688 L 93.664062 15.378906 L 93.605469 15.320312 L 93.546875 15.257812 L 93.484375 15.136719 L 93 14.410156 L 92.9375 14.351562 L 92.578125 13.925781 C 91.992188 13.207031 91.273438 12.609375 90.457031 12.171875 C 89.851562 11.804688 88.578125 12.171875 88.15625 12.835938 L 87.976562 13.140625 L 87.792969 13.867188 L 87.734375 14.167969 L 87.671875 14.226562 L 87.734375 14.289062 C 87.792969 14.226562 87.851562 14.59375 87.792969 14.710938 L 87.792969 14.773438 C 87.792969 14.710938 87.914062 14.835938 87.976562 15.078125 C 88.164062 15.808594 88.429688 16.515625 88.761719 17.195312 L 88.820312 17.316406 L 88.882812 17.4375 L 88.945312 17.742188 C 89.125 18.085938 89.265625 18.453125 89.367188 18.828125 C 89.476562 19.082031 89.558594 19.347656 89.609375 19.617188 L 89.671875 19.738281 C 90.210938 21.539062 90.59375 23.382812 90.820312 25.246094 C 91 26.882812 90.941406 28.757812 90.699219 28.699219 C 90.335938 28.699219 89.488281 28.335938 89.246094 28.09375 L 88.945312 27.972656 L 88.820312 27.851562 L 88.761719 27.789062 C 87.335938 26.789062 86.222656 25.402344 85.554688 23.796875 C 85.363281 23.410156 85.21875 23.003906 85.128906 22.582031 C 85.003906 22.226562 84.902344 21.863281 84.828125 21.492188 L 84.34375 20.648438 L 83.796875 20.101562 C 83.796875 19.921875 82.585938 19.738281 82.28125 19.921875 L 82.039062 19.980469 L 81.3125 20.523438 C 81.195312 20.648438 80.828125 21.25 80.769531 21.492188 C 80.527344 22.585938 80.527344 23.554688 80.710938 25.125 L 80.890625 26.335938 L 80.953125 26.703125 L 81.011719 26.820312 L 81.070312 27.0625 L 81.195312 27.367188 C 81.253906 27.609375 81.253906 27.609375 81.132812 27.609375 L 81.195312 27.671875 L 81.375 27.914062 C 81.46875 28.175781 81.570312 28.4375 81.679688 28.699219 C 81.945312 29.382812 82.289062 30.035156 82.707031 30.636719 L 82.765625 30.695312 L 82.890625 30.878906 L 83.3125 31.363281 L 83.617188 31.726562 L 83.917969 32.089844 L 84.160156 32.390625 L 84.21875 32.453125 C 84.28125 32.390625 85.070312 33.179688 85.070312 33.242188 L 85.128906 33.300781 C 85.1875 33.242188 85.554688 33.542969 85.492188 33.601562 L 85.554688 33.664062 C 85.671875 33.601562 85.976562 33.84375 85.976562 34.027344 C 86.039062 34.148438 86.039062 34.148438 86.15625 34.085938 C 86.21875 34.027344 86.28125 34.085938 86.398438 34.148438 L 86.945312 34.511719 L 87.25 34.695312 L 87.851562 35.054688 L 88.035156 35.179688 L 88.519531 35.421875 L 88.578125 35.480469 C 88.820312 35.480469 89.367188 35.78125 89.367188 35.90625 L 89.429688 36.023438 L 89.488281 35.964844 C 89.429688 35.90625 89.488281 35.84375 89.546875 35.90625 L 89.609375 35.964844 L 89.730469 36.023438 C 90.46875 36.277344 91.164062 36.644531 91.789062 37.117188 L 92.453125 37.601562 L 92.820312 37.902344 L 93.421875 38.445312 L 93.664062 38.75 L 93.789062 38.992188 C 93.847656 38.929688 94.148438 39.355469 94.148438 39.414062 C 94.089844 39.476562 94.148438 39.476562 94.210938 39.476562 L 94.273438 39.597656 L 94.273438 39.65625 L 94.515625 39.898438 L 94.695312 40.265625 L 94.757812 40.445312 L 94.816406 40.507812 L 94.875 40.566406 L 94.875 40.625 L 94.9375 40.6875 L 95 40.867188 L 95.300781 41.777344 C 95.359375 42.320312 95.421875 43.351562 95.359375 43.835938 C 95.226562 45.070312 94.644531 46.210938 93.726562 47.046875 L 93.546875 47.289062 L 93.363281 46.742188 L 93.304688 46.378906 L 93.242188 46.257812 L 93 45.710938 C 92.902344 45.363281 92.777344 45.019531 92.636719 44.683594 L 92.335938 43.957031 L 92.335938 43.773438 L 92.152344 43.414062 L 91.726562 42.445312 L 91.667969 42.382812 L 91.425781 41.898438 L 91.304688 41.777344 L 91.125 41.59375 L 91 41.535156 C 91 41.414062 90.757812 41.414062 90.335938 41.414062 C 89.789062 41.414062 89.671875 41.414062 89.671875 41.535156 L 89.609375 41.59375 C 89.429688 41.59375 89.304688 41.65625 89.003906 41.835938 C 88.714844 42.039062 88.410156 42.222656 88.09375 42.382812 L 87.976562 42.445312 L 87.550781 42.6875 L 87.007812 43.046875 L 86.523438 43.351562 L 86.097656 43.59375 L 86.039062 43.65625 L 85.371094 44.140625 C 84.84375 44.445312 84.335938 44.789062 83.859375 45.167969 C 83.496094 45.476562 83.109375 45.761719 82.707031 46.015625 C 82.648438 46.136719 81.796875 46.742188 81.738281 46.679688 L 81.679688 46.742188 C 81.738281 46.804688 81.375 47.105469 81.3125 47.105469 L 81.132812 47.226562 C 80.953125 47.347656 80.890625 47.347656 80.828125 47.164062 C 80.660156 46.296875 80.480469 45.425781 80.285156 44.5625 L 80.101562 43.898438 L 80.042969 43.65625 C 80.03125 43.589844 80.011719 43.53125 79.984375 43.472656 L 79.859375 43.230469 L 79.742188 42.929688 L 79.558594 42.5625 L 79.4375 42.203125 L 79.375 42.140625 L 79.074219 41.535156 C 78.761719 40.863281 78.398438 40.214844 77.984375 39.597656 L 77.804688 39.355469 L 77.320312 38.628906 C 75.804688 36.632812 74.230469 35.601562 73.5625 36.148438 L 73.261719 36.265625 C 72.292969 36.632812 71.808594 38.328125 72.351562 39.476562 L 72.414062 39.71875 L 72.476562 39.898438 C 72.507812 39.996094 72.53125 40.101562 72.535156 40.203125 C 72.8125 40.828125 73.035156 41.476562 73.203125 42.140625 L 73.320312 42.445312 C 73.351562 42.628906 73.394531 42.808594 73.441406 42.988281 C 73.511719 43.207031 73.570312 43.429688 73.625 43.65625 L 73.625 43.714844 L 73.6875 43.835938 L 73.6875 44.078125 C 73.824219 44.554688 73.925781 45.039062 73.988281 45.53125 L 74.109375 46.621094 C 74.171875 48.015625 74.113281 49.414062 73.929688 50.796875 C 73.867188 51.40625 73.5625 52.675781 73.445312 52.617188 L 73.445312 52.734375 C 73.503906 52.796875 73.503906 52.917969 73.382812 53.101562 L 73.320312 53.28125 L 73.261719 53.460938 L 73.261719 53.402344 C 73.261719 53.28125 73.261719 53.28125 73.203125 53.34375 L 73.203125 53.765625 L 73.140625 53.828125 L 73.078125 54.128906 L 72.960938 54.492188 L 72.71875 54.976562 C 72.71875 55.21875 72.476562 55.582031 72.414062 55.523438 L 72.414062 55.582031 C 72.476562 55.640625 72.414062 55.703125 72.292969 55.945312 L 72.171875 56.308594 C 72.171875 56.429688 71.992188 56.671875 71.929688 56.609375 L 71.929688 56.671875 L 71.867188 56.792969 C 71.808594 56.734375 71.808594 56.734375 71.867188 56.792969 L 71.808594 56.914062 L 71.6875 57.15625 C 71.445312 57.578125 71.382812 57.703125 71.203125 57.519531 L 71.082031 57.460938 C 71.023438 57.578125 70.171875 57.277344 70.113281 57.09375 C 70.054688 56.976562 70.054688 56.976562 70.054688 57.09375 C 70.054688 57.21875 70.054688 57.21875 69.445312 57.035156 C 67.335938 56.464844 65.15625 56.15625 62.96875 56.128906 C 62.789062 56.125 62.664062 56.125 62.726562 56.066406 L 62.664062 56.007812 C 62.605469 56.007812 62.546875 56.007812 62.605469 56.066406 L 61.9375 56.125 L 60.425781 56.1875 C 59.703125 56.300781 58.976562 56.382812 58.246094 56.429688 C 57.878906 56.472656 57.515625 56.53125 57.15625 56.609375 C 56.730469 56.671875 56.304688 56.75 55.886719 56.851562 C 55.28125 57.035156 55.15625 57.035156 55.097656 56.976562 L 54.914062 56.914062 C 54.796875 56.914062 54.796875 56.914062 54.914062 56.976562 C 55.097656 57.035156 55.097656 57.035156 54.855469 57.09375 L 54.613281 57.15625 L 54.671875 57.09375 L 54.796875 57.035156 L 54.671875 56.976562 L 54.613281 56.976562 C 54.554688 56.914062 54.371094 56.976562 54.3125 57.09375 L 54.429688 57.09375 C 54.554688 57.09375 54.554688 57.09375 54.492188 57.15625 L 54.25 57.277344 L 54.007812 57.335938 C 53.765625 57.460938 53.703125 57.460938 53.703125 57.398438 L 53.585938 57.335938 L 53.585938 57.460938 L 53.460938 57.398438 L 53.34375 57.398438 C 53.21875 57.460938 53.21875 57.460938 53.160156 57.335938 L 53.039062 57.035156 L 52.976562 56.914062 L 53.039062 56.851562 L 52.917969 56.851562 C 52.859375 56.851562 52.492188 56.1875 52.554688 56.125 L 52.492188 56.066406 L 52.375 55.765625 L 52.25 55.640625 L 52.132812 55.28125 C 51.765625 54.554688 51.523438 53.765625 51.648438 53.703125 C 51.707031 53.644531 51.707031 53.644531 51.585938 53.644531 L 51.464844 53.585938 L 51.40625 53.28125 L 51.34375 53.101562 L 51.28125 52.859375 L 50.980469 51.648438 L 50.679688 50.070312 C 50.304688 46.886719 50.742188 43.660156 51.949219 40.6875 C 52.125 40.113281 52.324219 39.546875 52.554688 38.992188 C 52.617188 38.871094 52.617188 37.539062 52.492188 37.476562 L 52.433594 37.296875 C 52.433594 37.175781 51.890625 36.449219 51.765625 36.390625 L 51.523438 36.265625 C 51.101562 35.964844 50.4375 36.023438 49.828125 36.265625 L 49.40625 36.449219 C 49.34375 36.390625 49.34375 36.449219 49.40625 36.449219 L 49.34375 36.632812 L 48.984375 36.875 L 48.679688 37.117188 L 48.617188 37.175781 C 48.617188 37.296875 48.375 37.539062 48.316406 37.476562 L 48.257812 37.539062 L 48.257812 37.660156 L 48.015625 37.902344 L 47.773438 38.085938 L 47.773438 38.144531 L 47.589844 38.445312 C 45.996094 40.542969 44.824219 42.929688 44.136719 45.46875 C 43.988281 46.109375 43.886719 46.753906 43.835938 47.40625 L 43.046875 46.863281 L 42.625 46.5 L 42.320312 46.257812 L 42.261719 46.195312 C 42.261719 46.257812 41.71875 45.894531 41.65625 45.773438 L 41.59375 45.710938 L 41.171875 45.410156 C 40.839844 45.152344 40.496094 44.910156 40.140625 44.683594 C 39.839844 44.433594 39.515625 44.210938 39.171875 44.015625 L 39.113281 43.957031 C 38.992188 43.957031 38.328125 43.472656 38.386719 43.472656 L 38.328125 43.414062 C 38.203125 43.414062 37.960938 43.289062 37.78125 43.109375 L 37.539062 42.988281 L 37.359375 42.867188 L 37.296875 42.804688 L 36.570312 42.382812 L 35.054688 41.59375 L 34.996094 41.476562 C 35.054688 41.414062 35.054688 41.414062 34.996094 41.476562 L 34.875 41.476562 L 34.8125 41.414062 C 33.96875 41.351562 33.90625 41.351562 33.785156 41.476562 C 33.542969 41.65625 33.542969 41.59375 33.542969 41.476562 L 33.601562 41.351562 L 33.542969 41.414062 L 33.484375 41.59375 L 33.300781 41.898438 L 32.9375 42.503906 C 32.523438 43.515625 32.097656 44.527344 31.664062 45.53125 L 31.605469 45.835938 L 31.484375 46.257812 C 31.304688 47.164062 31.179688 47.289062 30.9375 47.046875 C 30.617188 46.75 30.351562 46.402344 30.152344 46.015625 C 30.09375 46.015625 29.667969 45.167969 29.609375 44.867188 C 29.183594 43.65625 29.242188 41.59375 29.667969 41.050781 L 29.726562 40.992188 L 29.726562 40.867188 L 29.789062 40.6875 L 30.210938 39.898438 L 30.273438 39.839844 L 30.273438 39.78125 L 30.335938 39.65625 L 30.578125 39.355469 L 30.820312 38.992188 C 31.289062 38.433594 31.816406 37.929688 32.390625 37.480469 C 32.453125 37.359375 33 36.992188 33 37.054688 L 33.058594 36.992188 L 33.90625 36.507812 L 34.148438 36.449219 L 34.148438 36.390625 L 34.210938 36.328125 L 34.328125 36.328125 L 34.390625 36.265625 L 34.511719 36.265625 L 34.632812 36.207031 L 34.753906 36.085938 L 34.996094 36.023438 C 35.117188 35.90625 35.179688 35.90625 35.238281 35.964844 L 35.296875 35.964844 C 35.238281 35.84375 35.84375 35.539062 35.90625 35.601562 L 36.023438 35.539062 L 36.148438 35.421875 L 36.265625 35.421875 L 36.449219 35.296875 L 36.570312 35.238281 L 36.875 35.054688 L 37.539062 34.632812 L 37.660156 34.570312 L 38.144531 34.269531 C 38.308594 34.125 38.492188 34.003906 38.6875 33.90625 L 39.113281 33.542969 L 39.65625 33.117188 L 39.839844 33.117188 L 39.898438 33.179688 L 39.898438 33.117188 C 39.839844 33.058594 40.023438 32.816406 40.382812 32.453125 C 41.382812 31.445312 42.238281 30.304688 42.929688 29.0625 L 43.171875 28.398438 C 43.929688 26.535156 44.261719 24.527344 44.140625 22.523438 L 43.835938 21.3125 C 43.65625 20.707031 43.109375 20.039062 42.6875 19.921875 C 42.140625 19.796875 41.351562 19.859375 41.234375 19.980469 L 41.109375 19.980469 L 40.992188 19.921875 C 40.867188 19.921875 40.867188 19.921875 40.992188 19.980469 L 41.050781 20.101562 L 40.929688 20.101562 C 40.808594 20.164062 40.324219 20.648438 40.203125 20.949219 L 40.023438 21.25 L 39.960938 21.375 C 39.71875 22.585938 38.386719 25.550781 38.203125 25.308594 C 38.144531 25.25 38.144531 25.25 38.144531 25.367188 L 38.085938 25.492188 L 38.085938 25.550781 C 38.085938 25.734375 37.296875 26.761719 37.117188 26.761719 L 37.117188 26.820312 L 36.933594 27.0625 C 36.503906 27.382812 36.082031 27.703125 35.664062 28.03125 C 35.492188 28.121094 35.332031 28.222656 35.179688 28.335938 L 34.753906 28.515625 L 34.210938 28.699219 L 33.96875 28.757812 C 33.785156 29 33.785156 28.820312 33.785156 27.429688 C 33.789062 26.125 33.929688 24.824219 34.210938 23.550781 C 34.675781 20.664062 35.53125 17.855469 36.75 15.195312 L 36.875 14.652344 C 37.175781 13.320312 36.328125 12.046875 35.054688 12.109375 C 34.695312 12.109375 33.84375 12.289062 33.84375 12.414062 L 33.785156 12.472656 L 33.664062 12.53125 L 33.601562 12.59375 L 33 13.078125 C 32.9375 13.199219 32.816406 13.257812 32.816406 13.199219 L 32.757812 13.257812 L 32.695312 13.257812 L 32.632812 13.320312 L 32.632812 13.441406 L 32.515625 13.5 L 32.390625 13.742188 L 31.96875 14.167969 C 31.53125 14.832031 31.066406 15.476562 30.578125 16.105469 C 30.355469 16.457031 30.152344 16.820312 29.96875 17.195312 L 29.910156 17.316406 L 29.851562 17.316406 L 29.789062 17.375 L 29.609375 17.984375 C 28.949219 19.148438 28.382812 20.363281 27.910156 21.617188 L 27.914062 21.859375 L 27.789062 22.039062 L 27.851562 22.039062 L 27.609375 22.644531 C 27.523438 22.90625 27.441406 23.167969 27.367188 23.429688 L 27.367188 23.492188 L 27.304688 23.613281 C 27.128906 24.492188 26.910156 25.363281 26.640625 26.214844 L 26.578125 26.460938 C 26.523438 26.617188 26.484375 26.777344 26.460938 26.945312 C 26.375 27.164062 26.292969 27.386719 26.21875 27.609375 L 26.09375 28.214844 L 26.09375 28.273438 L 26.035156 28.398438 L 25.976562 28.640625 L 25.914062 28.820312 L 25.851562 29.0625 L 25.734375 29.484375 C 25.550781 29.941406 25.386719 30.40625 25.25 30.878906 L 25.125 31.304688 L 24.945312 31.664062 L 24.882812 31.726562 L 24.765625 31.90625 L 24.640625 32.210938 L 24.460938 32.453125 C 24.039062 33.300781 23.671875 33.359375 23.554688 32.695312 L 23.492188 32.574219 L 23.492188 32.515625 L 23.429688 32.273438 L 23.3125 31.96875 L 23.25 31.546875 L 23.128906 31.179688 L 23.070312 30.820312 C 22.828125 29.628906 22.585938 28.4375 22.34375 27.246094 C 22.199219 26.503906 22.101562 25.757812 22.039062 25.007812 C 21.535156 20.347656 22.050781 15.636719 23.554688 11.199219 L 23.734375 10.050781 L 23.734375 8.597656 C 23.613281 8.171875 23.007812 7.386719 22.703125 7.265625 L 22.585938 7.203125 L 22.039062 7.144531 C 21.554688 7.144531 21.070312 7.328125 20.765625 7.628906 C 20.34375 8.054688 19.859375 8.71875 19.859375 8.839844 L 19.617188 9.203125 L 19.4375 9.507812 L 19.375 9.625 L 19.011719 10.171875 L 18.769531 10.535156 L 18.710938 10.59375 C 18.769531 10.65625 18.527344 11.140625 18.40625 11.320312 L 18.34375 11.261719 L 18.226562 11.261719 L 18.34375 11.320312 L 18.34375 11.503906 L 18.226562 11.804688 L 18.101562 11.867188 L 18.101562 11.929688 L 18.042969 12.289062 C 17.765625 12.839844 17.523438 13.40625 17.316406 13.988281 L 17.132812 14.46875 L 17.074219 14.710938 L 16.832031 15.195312 C 16.953125 15.195312 16.46875 16.289062 16.347656 16.347656 L 16.347656 16.40625 C 16.46875 16.40625 16.46875 16.589844 16.347656 16.773438 L 16.289062 17.015625 L 16.226562 17.132812 L 16.164062 17.257812 L 16.105469 17.742188 C 16.003906 18.035156 15.921875 18.339844 15.863281 18.648438 L 15.742188 19.011719 C 15.632812 19.949219 15.472656 20.878906 15.257812 21.796875 L 15.136719 22.21875 L 15.078125 22.703125 L 15.015625 23.492188 C 14.753906 26.210938 14.734375 28.945312 14.957031 31.667969 L 15.015625 32.210938 C 15.105469 33.128906 15.265625 34.042969 15.5 34.933594 C 15.511719 35.136719 15.53125 35.339844 15.558594 35.542969 C 15.601562 35.808594 15.660156 36.070312 15.742188 36.328125 L 15.863281 36.691406 C 16.136719 37.945312 16.503906 39.179688 16.953125 40.382812 L 17.257812 41.292969 L 17.257812 41.351562 L 17.375 41.414062 L 17.558594 41.960938 L 17.679688 42.261719 L 17.742188 42.445312 L 17.984375 42.929688 C 19.035156 45.214844 20.355469 47.371094 21.917969 49.34375 C 24.058594 51.773438 26.597656 53.820312 29.425781 55.398438 C 29.789062 55.582031 29.789062 55.582031 29.789062 56.367188 C 29.738281 57.992188 29.859375 59.617188 30.152344 61.214844 L 30.210938 61.515625 L 30.273438 61.878906 C 30.304688 62.207031 30.363281 62.53125 30.453125 62.847656 L 30.515625 63.148438 L 30.878906 64.359375 L 31.121094 65.390625 L 31.304688 66.117188 L 31.304688 66.179688 C 31.421875 66.296875 31.484375 66.480469 31.421875 66.480469 C 31.363281 66.421875 31.304688 66.480469 31.304688 66.601562 C 31.304688 66.78125 31.421875 66.964844 31.421875 66.78125 L 31.546875 66.722656 L 31.605469 66.78125 L 31.664062 67.023438 L 31.664062 67.265625 L 31.789062 67.265625 L 31.789062 67.390625 L 32.148438 68.359375 L 32.210938 68.476562 L 32.210938 68.601562 L 32.148438 68.660156 L 32.273438 68.71875 C 32.332031 68.71875 32.390625 68.902344 32.273438 68.902344 C 32.210938 68.960938 32.273438 69.265625 32.332031 69.265625 L 32.453125 69.144531 C 32.515625 69.085938 32.515625 69.085938 32.515625 69.203125 C 32.453125 69.265625 32.515625 69.328125 32.574219 69.328125 L 32.632812 69.386719 L 32.695312 69.628906 C 32.816406 69.75 32.816406 69.8125 32.757812 69.8125 C 32.632812 69.8125 32.574219 70.054688 32.632812 70.113281 L 32.816406 70.171875 C 32.9375 70.171875 33.359375 70.78125 33.359375 71.023438 L 33.421875 71.082031 L 33.726562 71.625 L 34.085938 72.292969 L 34.148438 72.535156 C 34.148438 73.019531 34.328125 73.382812 34.511719 73.140625 L 34.570312 73.140625 L 34.695312 73.382812 L 35.179688 74.109375 L 35.238281 74.171875 L 35.480469 74.53125 L 35.722656 74.957031 C 35.664062 74.898438 35.601562 74.957031 35.664062 75.015625 C 35.664062 75.140625 35.78125 75.199219 35.78125 75.078125 C 35.78125 74.957031 36.023438 75.257812 36.085938 75.382812 C 36.085938 75.625 36.085938 75.625 36.148438 75.5 L 36.265625 75.5625 C 36.328125 75.683594 36.328125 75.683594 36.207031 75.625 L 36.148438 75.742188 L 36.207031 75.867188 L 36.265625 75.867188 L 36.265625 76.046875 L 36.507812 76.046875 C 36.507812 75.925781 36.8125 76.289062 36.8125 76.410156 L 36.570312 76.894531 L 36.507812 76.953125 C 36.203125 77.671875 35.839844 78.359375 35.417969 79.015625 L 35.359375 79.074219 C 35.25 79.453125 35.066406 79.800781 34.8125 80.101562 C 34.628906 80.46875 34.40625 80.8125 34.148438 81.132812 L 33.785156 81.617188 L 33.726562 81.738281 L 33.601562 81.921875 L 33.359375 82.164062 C 31.660156 84.332031 29.566406 86.160156 27.1875 87.550781 C 26.460938 87.914062 26.519531 88.761719 27.304688 88.882812 L 27.671875 88.882812 C 29.171875 88.96875 30.679688 88.847656 32.148438 88.519531 C 32.308594 88.472656 32.472656 88.429688 32.632812 88.398438 L 32.695312 88.398438 L 32.816406 88.335938 C 32.257812 89.257812 31.710938 90.1875 31.183594 91.121094 C 30.578125 92.074219 29.910156 92.988281 29.183594 93.847656 L 28.640625 94.515625 L 28.03125 95.179688 C 27.488281 95.726562 27.429688 95.90625 27.546875 96.269531 C 27.671875 96.632812 27.789062 96.695312 28.820312 96.695312 C 29.628906 96.679688 30.433594 96.679688 31.242188 96.695312 L 31.179688 96.695312 L 32.875 96.753906 L 34.328125 97.054688 C 34.511719 97.117188 34.390625 97.179688 33.421875 97.664062 C 32.828125 97.933594 32.261719 98.257812 31.726562 98.632812 L 31.605469 98.632812 L 31.546875 98.691406 L 31.546875 98.8125 L 31.484375 98.75 C 31.484375 98.570312 31.363281 98.632812 31.304688 98.75 L 31.121094 98.875 L 31.0625 98.992188 L 31.179688 98.992188 L 31.0625 99.117188 C 30.757812 99.476562 30.820312 100.085938 31.179688 100.085938 L 31.421875 100.144531 C 31.597656 100.210938 31.78125 100.253906 31.96875 100.265625 C 32.269531 100.355469 32.574219 100.433594 32.875 100.507812 L 33.484375 100.6875 L 33.664062 100.75 L 34.027344 100.871094 L 34.328125 100.929688 L 34.390625 100.992188 L 34.511719 100.992188 C 35.15625 101.257812 35.800781 101.523438 36.449219 101.777344 L 36.632812 101.78125 L 36.75 101.839844 L 36.875 101.839844 L 36.933594 101.898438 L 37.359375 102.023438 C 37.539062 102.082031 37.539062 102.082031 37.417969 102.140625 C 37.296875 102.265625 37.359375 102.382812 37.601562 102.382812 C 37.71875 102.382812 37.71875 102.382812 37.660156 102.265625 C 37.660156 102.140625 37.660156 102.140625 37.78125 102.203125 L 37.84375 102.265625 L 38.023438 102.324219 L 38.265625 102.382812 C 38.660156 102.546875 39.042969 102.726562 39.417969 102.929688 L 39.839844 103.050781 L 40.265625 103.234375 L 40.382812 103.351562 C 40.445312 103.292969 40.6875 103.414062 40.6875 103.476562 L 40.75 103.535156 L 41.234375 103.71875 L 41.777344 103.960938 L 42.078125 104.078125 C 42.515625 104.335938 42.960938 104.578125 43.410156 104.804688 C 44.042969 105.027344 44.652344 105.3125 45.226562 105.65625 L 45.226562 105.835938 L 45.289062 105.773438 L 45.46875 105.773438 L 45.59375 105.835938 L 45.710938 105.898438 L 46.078125 106.078125 L 46.4375 106.320312 L 46.804688 106.5 L 47.105469 106.683594 L 47.648438 106.984375 L 48.679688 107.53125 L 48.742188 107.59375 C 49.382812 107.859375 49.996094 108.207031 50.554688 108.621094 L 50.617188 108.679688 L 50.738281 108.742188 L 50.796875 108.804688 L 50.980469 108.921875 L 51.28125 109.105469 L 51.707031 109.40625 L 51.828125 109.46875 L 51.949219 109.589844 L 52.070312 109.648438 C 52.007812 109.710938 52.070312 109.710938 52.070312 109.648438 L 52.25 109.710938 L 52.492188 109.890625 L 52.675781 110.015625 L 52.796875 110.074219 L 52.859375 110.132812 L 52.917969 110.195312 L 53.160156 110.375 L 53.402344 110.5 L 54.25 111.101562 C 55.25 111.957031 56.238281 112.824219 57.21875 113.707031 L 57.335938 113.765625 L 57.398438 113.828125 C 58.625 114.582031 60.019531 115.015625 61.453125 115.101562 L 61.820312 115.101562 C 63.125 115.128906 64.433594 114.964844 65.695312 114.617188 L 65.9375 114.492188 L 66.179688 114.433594 L 66.238281 114.375 L 66.296875 114.3125 L 66.359375 114.3125 L 66.84375 114.007812 C 67.101562 113.894531 67.34375 113.753906 67.570312 113.585938 L 67.75 113.464844 L 68.296875 113.039062 C 69.273438 112.292969 70.203125 111.484375 71.082031 110.617188 L 71.324219 110.4375 L 71.625 110.195312 L 71.808594 110.074219 C 72.222656 109.730469 72.671875 109.429688 73.140625 109.164062 L 73.382812 109.046875 L 73.445312 108.984375 L 73.867188 108.804688 L 73.929688 108.742188 C 73.988281 108.621094 73.988281 108.621094 74.109375 108.679688 L 74.171875 108.679688 C 74.109375 108.621094 74.171875 108.5625 74.230469 108.5 L 74.351562 108.4375 C 74.847656 108.089844 75.375 107.785156 75.925781 107.53125 L 76.226562 107.351562 L 76.46875 107.226562 L 76.53125 107.226562 L 76.59375 107.167969 L 76.710938 107.109375 L 76.835938 107.226562 L 76.835938 107.109375 L 77.015625 106.925781 L 77.257812 106.804688 L 77.863281 106.5 L 78.164062 106.320312 L 78.53125 106.078125 L 79.074219 105.835938 L 79.257812 105.773438 L 79.375 105.65625 C 80.648438 105.132812 81.882812 104.523438 83.070312 103.839844 L 83.3125 103.777344 L 83.492188 103.71875 L 83.917969 103.476562 C 84.703125 103.050781 85.371094 102.808594 85.429688 102.867188 C 85.492188 102.929688 85.492188 102.929688 85.429688 102.867188 L 85.429688 102.75 C 85.492188 102.808594 85.613281 102.75 85.796875 102.625 C 85.949219 102.546875 86.109375 102.484375 86.28125 102.445312 L 86.765625 102.265625 L 86.945312 102.203125 L 87.066406 102.082031 L 87.308594 102.023438 C 88.210938 101.613281 89.140625 101.269531 90.09375 100.992188 L 90.335938 100.992188 L 90.457031 100.929688 L 90.640625 100.871094 L 91.0625 100.75 C 91.257812 100.667969 91.460938 100.605469 91.667969 100.570312 L 92.03125 100.445312 C 92.597656 100.273438 93.164062 100.089844 93.726562 99.902344 C 93.789062 99.296875 93.726562 99.234375 93.304688 98.933594 L 93 98.691406 L 92.820312 98.570312 L 92.636719 98.449219 L 92.578125 98.390625 L 92.210938 98.207031 L 91.851562 97.964844 L 91.789062 97.90625 L 90.757812 97.421875 L 90.640625 97.296875 L 90.398438 97.179688 C 90.03125 97.179688 90.09375 97.054688 90.398438 96.996094 C 90.660156 96.988281 90.921875 96.96875 91.183594 96.9375 L 91.546875 96.875 C 92.308594 96.761719 93.078125 96.699219 93.847656 96.695312 L 94.515625 96.753906 C 95.117188 96.753906 95.359375 96.753906 95.300781 96.695312 L 95.84375 96.695312 C 96.996094 96.753906 97.539062 96.210938 96.875 95.542969 L 96.269531 94.816406 L 95.785156 94.148438 C 95.609375 93.984375 95.445312 93.800781 95.300781 93.605469 L 95.179688 93.421875 C 94.792969 92.957031 94.429688 92.472656 94.089844 91.96875 L 94.03125 91.851562 C 93.96875 91.910156 93.96875 91.910156 93.90625 91.789062 L 93.789062 91.609375 L 93.605469 91.425781 L 93.484375 91.183594 L 93.421875 91.125 L 93.363281 91 L 93.121094 90.640625 L 93 90.515625 L 92.878906 90.273438 L 92.695312 89.972656 L 92.578125 89.789062 L 92.453125 89.546875 L 92.09375 89.0625 L 91.851562 88.578125 L 91.789062 88.460938 L 91.726562 88.335938 L 91.726562 88.277344 L 92.09375 88.460938 C 92.519531 88.550781 92.941406 88.652344 93.363281 88.761719 L 94.574219 88.945312 C 95.5625 88.992188 96.554688 88.972656 97.542969 88.882812 C 98.148438 88.820312 98.085938 87.734375 97.421875 87.550781 L 97.296875 87.429688 L 97.238281 87.367188 L 96.753906 87.066406 C 96.382812 86.804688 96 86.5625 95.601562 86.339844 L 94.390625 85.429688 C 91.714844 83.085938 89.566406 80.195312 88.097656 76.957031 C 87.792969 76.953125 87.792969 76.410156 88.09375 76.046875 L 88.398438 75.625 L 88.578125 75.382812 L 88.882812 74.957031 L 89.0625 74.714844 L 89.125 74.65625 C 89.390625 74.148438 89.695312 73.660156 90.03125 73.203125 L 90.214844 72.898438 L 90.335938 72.71875 L 90.398438 72.59375 L 90.515625 72.351562 L 90.820312 71.808594 C 92.363281 69.101562 93.507812 66.1875 94.210938 63.148438 L 94.210938 63.089844 L 94.089844 62.96875 C 94.183594 62.691406 94.265625 62.40625 94.332031 62.121094 C 94.5 61.425781 94.601562 60.714844 94.632812 60 C 94.667969 59.597656 94.710938 59.195312 94.757812 58.792969 C 94.851562 57.722656 94.929688 56.652344 95 55.582031 L 95.117188 55.460938 L 95.242188 55.460938 L 95.359375 55.398438 C 95.421875 55.28125 95.484375 55.28125 95.542969 55.339844 L 95.601562 55.339844 C 95.542969 55.21875 96.390625 54.671875 96.570312 54.671875 L 96.632812 54.613281 L 96.753906 54.554688 L 96.8125 54.492188 L 96.875 54.429688 L 97.054688 54.3125 L 97.179688 54.3125 L 97.238281 54.25 C 97.296875 54.1875 97.359375 54.070312 97.480469 54.070312 L 97.601562 53.945312 L 97.664062 53.886719 L 97.84375 53.828125 L 98.148438 53.585938 L 98.875 53.039062 L 99.296875 52.734375 L 99.417969 52.617188 L 99.78125 52.3125 C 100.105469 52.074219 100.410156 51.8125 100.6875 51.523438 C 101.800781 50.550781 102.796875 49.457031 103.65625 48.257812 L 103.835938 48.195312 L 103.777344 48.195312 L 103.71875 48.132812 L 103.835938 47.953125 L 103.898438 47.890625 L 104.382812 47.226562 L 104.445312 47.164062 L 104.5625 46.921875 L 104.867188 46.5 L 105.046875 46.136719 C 109.484375 38.714844 111.035156 29.925781 109.40625 21.433594 C 109.230469 20.546875 109.070312 19.660156 108.925781 18.769531 L 108.621094 17.742188 C 108.480469 17.34375 108.359375 16.9375 108.257812 16.527344 L 108.195312 16.289062 L 108.078125 15.921875 C 107.824219 14.945312 107.480469 13.992188 107.046875 13.078125 L 106.925781 12.773438 L 106.867188 12.65625 L 106.867188 12.53125 L 106.804688 12.351562 L 106.683594 12.230469 L 106.257812 11.261719 C 106.066406 10.957031 105.90625 10.628906 105.773438 10.292969 L 105.714844 10.234375 L 105.65625 10.050781 L 105.289062 9.507812 C 104.894531 8.761719 104.386719 8.089844 103.777344 7.507812 L 103.71875 7.445312 C 103.414062 7.203125 103.109375 7.144531 102.75 7.144531 Z M 104.078125 7.203125 L 104.019531 7.265625 L 104.078125 7.265625 Z M 22.039062 8.296875 L 22.160156 8.355469 C 22.765625 8.71875 22.703125 9.625 21.917969 12.65625 C 21.492188 14.46875 21.191406 15.742188 21.070312 16.890625 C 20.328125 22.164062 20.738281 27.539062 22.28125 32.636719 C 23.371094 36.507812 25.914062 34.085938 27.488281 27.789062 L 28.273438 24.640625 C 29.726562 19.132812 33.300781 13.257812 35.117188 13.257812 C 35.964844 13.257812 35.84375 14.59375 34.753906 16.890625 C 33.242188 20.222656 32.03125 28.335938 32.875 29.484375 C 33.421875 30.335938 35.054688 30.03125 36.632812 28.882812 C 38.6875 27.304688 40.023438 25.25 40.992188 22.21875 C 41.65625 19.980469 42.988281 20.765625 42.988281 23.429688 C 42.988281 28.699219 39.960938 32.632812 33.96875 35.117188 C 33.558594 35.265625 33.152344 35.425781 32.753906 35.601562 C 32.097656 35.859375 31.453125 36.140625 30.820312 36.449219 C 29.242188 37.175781 27.730469 37.902344 26.460938 38.6875 C 23.429688 40.507812 21.492188 43.59375 21.617188 46.4375 C 21.675781 47.046875 21.617188 47.105469 21.433594 46.679688 L 20.828125 45.835938 C 19.058594 42.890625 17.769531 39.679688 17.015625 36.328125 C 15.542969 30.207031 15.648438 23.8125 17.316406 17.742188 C 18.585938 13.140625 21.070312 8.296875 22.039062 8.296875 Z M 102.625 8.355469 C 103.535156 8.355469 105.53125 11.746094 106.867188 16.105469 C 110.042969 25.832031 109.054688 36.4375 104.140625 45.410156 C 103.109375 47.046875 103.109375 47.046875 103.109375 46.078125 C 102.929688 42.867188 101.414062 40.6875 97.480469 38.203125 C 96.019531 37.414062 94.523438 36.6875 93 36.023438 L 88.703125 34.085938 C 84.21875 31.90625 81.796875 28.15625 81.796875 23.429688 C 81.796875 20.648438 83.132812 19.980469 83.796875 22.402344 C 84.886719 26.09375 87.429688 29.0625 90.273438 29.910156 C 92.09375 30.394531 92.453125 29.242188 91.910156 24.824219 C 91.609375 22.160156 90.820312 19.070312 89.851562 16.773438 C 88.945312 14.59375 88.820312 13.925781 89.246094 13.441406 C 89.914062 12.65625 91.667969 14.289062 93.484375 17.4375 C 95.058594 20.164062 96.027344 22.703125 97.117188 27.304688 C 98.8125 34.085938 101.296875 36.632812 102.445312 32.695312 C 104.320312 26.15625 104.503906 19.738281 102.992188 13.5 C 102.140625 10.171875 102.203125 10.234375 102.203125 9.566406 C 102.203125 8.78125 102.324219 8.355469 102.625 8.355469 Z M 19.980469 8.414062 L 19.921875 8.476562 L 19.980469 8.476562 Z M 105.046875 8.597656 L 104.988281 8.65625 L 105.046875 8.65625 Z M 18.890625 10.109375 L 18.828125 10.171875 L 18.890625 10.171875 Z M 18.769531 10.351562 L 18.769531 10.414062 L 18.828125 10.414062 Z M 18.226562 11.445312 L 18.164062 11.503906 L 18.226562 11.503906 Z M 88.578125 12.230469 L 88.519531 12.230469 L 88.578125 12.289062 L 88.640625 12.230469 Z M 101.171875 12.414062 L 101.113281 12.472656 L 101.171875 12.472656 Z M 101.296875 12.53125 L 101.234375 12.59375 L 101.296875 12.59375 Z M 101.171875 12.714844 L 101.113281 12.773438 L 101.171875 12.773438 Z M 101.296875 12.714844 L 101.234375 12.773438 L 101.296875 12.773438 Z M 32.574219 13.257812 L 32.515625 13.320312 L 32.574219 13.320312 Z M 87.609375 14.410156 L 87.550781 14.46875 L 87.609375 14.46875 Z M 87.734375 14.410156 L 87.671875 14.46875 L 87.734375 14.46875 Z M 87.734375 14.53125 L 87.671875 14.59375 L 87.734375 14.59375 Z M 88.035156 15.5625 L 87.976562 15.621094 L 88.035156 15.621094 Z M 22.585938 15.921875 L 22.523438 15.984375 L 22.585938 15.984375 Z M 94.515625 16.164062 L 94.453125 16.226562 L 94.453125 16.289062 L 94.515625 16.226562 Z M 94.453125 16.347656 L 94.390625 16.40625 L 94.453125 16.40625 Z M 36.390625 16.40625 L 36.328125 16.46875 L 36.328125 16.53125 L 36.449219 16.46875 Z M 16.289062 16.46875 L 16.226562 16.53125 L 16.289062 16.53125 Z M 36.449219 16.53125 L 36.449219 16.589844 L 36.390625 16.648438 C 36.390625 16.710938 36.449219 16.710938 36.449219 16.589844 Z M 16.289062 16.589844 L 16.226562 16.648438 L 16.289062 16.648438 Z M 16.347656 16.832031 L 16.347656 16.890625 L 16.289062 16.890625 Z M 36.449219 16.890625 L 36.390625 16.953125 L 36.449219 16.953125 Z M 15.921875 17.074219 L 15.863281 17.132812 L 15.863281 17.316406 C 15.921875 17.4375 15.984375 17.316406 15.921875 17.195312 Z M 88.578125 17.558594 L 88.519531 17.617188 L 88.578125 17.617188 Z M 102.203125 17.558594 L 102.140625 17.617188 L 102.203125 17.617188 Z M 102.445312 17.617188 L 102.382812 17.679688 L 102.445312 17.679688 Z M 102.265625 17.679688 L 102.203125 17.742188 L 102.265625 17.742188 Z M 102.507812 17.742188 L 102.445312 17.800781 L 102.507812 17.800781 Z M 29.484375 17.800781 L 29.425781 17.859375 L 29.484375 17.859375 Z M 102.445312 17.859375 L 102.382812 17.921875 L 102.507812 17.984375 L 102.507812 17.921875 Z M 88.882812 17.921875 L 88.820312 17.984375 L 88.882812 17.984375 Z M 109.164062 18.226562 L 109.105469 18.285156 L 109.164062 18.285156 Z M 109.046875 18.46875 L 109.046875 18.527344 L 109.105469 18.585938 L 109.105469 18.46875 Z M 81.796875 19.980469 L 81.738281 20.039062 L 81.796875 20.039062 Z M 89.546875 19.980469 L 89.488281 20.039062 L 89.546875 20.039062 Z M 96.570312 19.980469 L 96.511719 20.039062 L 96.570312 20.039062 Z M 81.617188 20.039062 L 81.554688 20.101562 L 81.617188 20.101562 Z M 83.976562 20.039062 L 83.917969 20.101562 L 83.976562 20.101562 Z M 89.546875 20.164062 L 89.488281 20.222656 L 89.546875 20.222656 Z M 96.453125 20.164062 L 96.390625 20.222656 L 96.453125 20.222656 Z M 89.546875 20.464844 L 89.429688 20.523438 L 89.429688 20.585938 L 89.546875 20.523438 Z M 14.953125 21.734375 L 14.894531 21.796875 L 14.953125 21.796875 Z M 27.488281 21.917969 L 27.488281 21.976562 L 27.429688 22.101562 C 27.429688 22.21875 27.488281 22.28125 27.546875 22.160156 C 27.609375 22.101562 27.546875 21.917969 27.488281 21.917969 Z M 14.953125 22.160156 L 14.894531 22.21875 L 14.953125 22.21875 Z M 39.597656 22.21875 L 39.539062 22.28125 L 39.597656 22.28125 Z M 26.578125 26.035156 L 26.519531 26.09375 L 26.578125 26.09375 Z M 80.769531 26.277344 L 80.710938 26.335938 L 80.769531 26.398438 L 80.828125 26.335938 Z M 37.234375 26.519531 L 37.175781 26.578125 L 37.234375 26.578125 Z M 44.199219 26.519531 L 44.140625 26.578125 L 44.199219 26.578125 Z M 80.769531 26.519531 L 80.769531 26.578125 L 80.828125 26.640625 L 80.890625 26.640625 L 80.828125 26.519531 C 80.8125 26.507812 80.789062 26.507812 80.769531 26.519531 Z M 43.898438 26.578125 L 43.835938 26.640625 L 43.898438 26.640625 Z M 80.769531 26.703125 L 80.769531 27.0625 C 80.828125 27.125 80.828125 27.125 80.828125 26.882812 Z M 81.011719 27.1875 L 80.953125 27.246094 L 81.011719 27.246094 Z M 80.828125 27.246094 L 80.769531 27.304688 L 80.828125 27.304688 Z M 81.132812 27.429688 L 81.070312 27.488281 L 81.132812 27.488281 Z M 22.644531 27.671875 L 22.585938 27.730469 L 22.644531 27.730469 Z M 22.828125 28.699219 L 22.765625 28.757812 L 22.828125 28.757812 Z M 25.550781 28.820312 L 25.550781 28.882812 L 25.492188 28.941406 L 25.550781 29 L 25.609375 28.882812 Z M 81.980469 29.484375 L 81.921875 29.546875 L 81.980469 29.546875 Z M 101.234375 31.90625 L 101.171875 31.96875 L 101.234375 31.96875 Z M 101.234375 32.089844 L 101.171875 32.148438 L 101.234375 32.148438 Z M 85.1875 33.359375 L 85.128906 33.421875 L 85.1875 33.421875 Z M 85.1875 33.484375 L 85.128906 33.542969 L 85.1875 33.542969 Z M 86.097656 33.90625 L 86.097656 33.96875 L 86.039062 33.96875 Z M 109.226562 35.480469 L 109.164062 35.539062 L 109.226562 35.539062 Z M 35.480469 35.90625 L 35.421875 35.964844 L 35.480469 35.964844 Z M 89.730469 36.148438 L 89.671875 36.207031 L 89.730469 36.207031 Z M 89.914062 36.148438 L 89.851562 36.207031 L 89.914062 36.207031 Z M 34.453125 36.328125 L 34.390625 36.390625 L 34.453125 36.390625 Z M 49.226562 36.390625 L 49.164062 36.449219 L 49.226562 36.449219 Z M 90.398438 36.390625 L 90.335938 36.449219 L 90.398438 36.449219 Z M 49.226562 36.507812 L 49.164062 36.570312 L 49.226562 36.570312 Z M 49.101562 36.570312 L 49.042969 36.632812 L 49.101562 36.632812 Z M 91.367188 36.875 L 91.304688 36.933594 L 91.367188 36.933594 Z M 50.738281 37.234375 C 50.980469 37.234375 51.164062 37.417969 51.34375 37.78125 C 51.523438 38.265625 51.34375 38.871094 50.617188 41.109375 C 49.140625 45.113281 48.972656 49.480469 50.132812 53.585938 C 50.132812 53.402344 47.046875 50.253906 46.015625 49.34375 C 44.925781 48.4375 44.984375 48.5 44.984375 47.773438 C 45.167969 44.925781 46.4375 41.898438 48.558594 39.113281 C 49.527344 37.902344 50.253906 37.234375 50.738281 37.234375 Z M 74.046875 37.234375 C 75.625 37.296875 79.195312 43.351562 79.617188 46.921875 C 79.800781 48.4375 79.800781 48.316406 79.132812 48.921875 C 77.539062 50.308594 76.023438 51.785156 74.59375 53.34375 L 74.714844 52.859375 C 75.761719 48.714844 75.464844 44.347656 73.867188 40.382812 C 73.140625 38.328125 73.140625 37.601562 73.804688 37.296875 Z M 52.917969 37.601562 L 52.859375 37.660156 L 52.917969 37.660156 Z M 29.851562 38.203125 C 29.910156 38.203125 29.851562 38.328125 29.546875 38.6875 C 27.367188 41.960938 27.671875 45.652344 30.335938 48.074219 C 30.820312 48.558594 30.820312 48.558594 30.695312 48.859375 C 30.453125 49.953125 30.09375 52.132812 29.96875 53.460938 C 29.910156 54.429688 29.96875 54.371094 29.304688 53.945312 C 26.945312 52.554688 24.097656 50.195312 23.371094 48.984375 C 22.886719 48.257812 22.703125 47.289062 22.765625 46.078125 C 22.945312 42.929688 25.007812 40.566406 29.546875 38.328125 Z M 94.9375 38.265625 L 95.84375 38.6875 C 100.445312 40.929688 102.566406 44.199219 101.78125 47.890625 C 101.539062 49.164062 100.8125 50.011719 98.449219 51.890625 C 97.976562 52.222656 97.515625 52.566406 97.054688 52.917969 C 96.539062 53.199219 96.035156 53.503906 95.542969 53.828125 L 94.875 54.25 C 94.757812 54.3125 94.757812 54.3125 94.695312 53.21875 L 94.148438 49.769531 C 93.847656 48.4375 93.847656 48.617188 94.515625 47.953125 C 97.054688 45.410156 97.238281 41.71875 95.117188 38.628906 Z M 47.40625 38.328125 L 47.347656 38.386719 L 47.40625 38.386719 Z M 47.40625 38.445312 L 47.347656 38.507812 L 47.40625 38.507812 Z M 52.976562 38.871094 L 52.917969 38.929688 L 52.976562 38.929688 Z M 93.847656 39.054688 L 93.789062 39.113281 L 93.847656 39.113281 Z M 46.921875 39.113281 L 46.863281 39.171875 L 46.921875 39.171875 Z M 72.109375 39.171875 L 72.050781 39.234375 L 72.109375 39.234375 Z M 94.273438 39.839844 L 94.273438 39.898438 L 94.332031 39.960938 L 94.390625 39.960938 L 94.332031 39.839844 C 94.3125 39.828125 94.289062 39.828125 94.273438 39.839844 Z M 108.136719 39.898438 L 108.078125 39.960938 L 108.136719 39.960938 Z M 94.390625 40.023438 L 94.332031 40.082031 L 94.390625 40.082031 Z M 16.832031 40.808594 L 16.832031 40.867188 L 16.890625 40.929688 L 16.890625 40.808594 Z M 33.726562 41.351562 L 33.664062 41.414062 L 33.726562 41.414062 Z M 35.238281 41.476562 L 35.179688 41.535156 L 35.238281 41.535156 Z M 33.359375 41.535156 L 33.300781 41.59375 L 33.359375 41.59375 Z M 51.648438 42.261719 L 51.585938 42.320312 L 51.648438 42.320312 Z M 44.925781 42.445312 L 44.867188 42.503906 L 44.925781 42.5625 L 44.984375 42.503906 Z M 73.019531 42.5625 L 72.960938 42.746094 C 72.960938 42.804688 73.019531 42.867188 73.078125 42.804688 C 73.203125 42.746094 73.261719 42.6875 73.140625 42.6875 L 73.078125 42.625 Z M 34.453125 42.6875 L 34.632812 42.746094 L 34.695312 42.804688 C 37.34375 44.058594 39.808594 45.667969 42.019531 47.589844 L 42.382812 47.890625 C 43.101562 48.417969 43.789062 48.984375 44.441406 49.585938 C 45.296875 50.28125 46.105469 51.03125 46.863281 51.828125 C 48.742188 53.722656 50.464844 55.769531 52.007812 57.941406 C 52.425781 58.449219 52.753906 59.023438 52.976562 59.640625 C 53.039062 59.640625 53.28125 59.941406 53.703125 60.789062 C 54.25 61.878906 54.613281 62.121094 55.039062 61.695312 C 55.398438 61.335938 55.339844 61.03125 54.429688 59.515625 C 53.886719 58.671875 53.886719 58.609375 54.1875 58.546875 C 54.636719 58.46875 55.082031 58.367188 55.523438 58.246094 L 55.640625 58.246094 C 60.613281 56.984375 65.839844 57.152344 70.71875 58.730469 L 70.414062 59.273438 C 70.109375 59.796875 69.804688 60.320312 69.507812 60.847656 C 69.203125 61.820312 70.171875 62.304688 70.65625 61.394531 C 71.980469 58.828125 73.605469 56.429688 75.5 54.25 C 78.722656 50.730469 82.363281 47.621094 86.339844 44.988281 C 90.15625 42.382812 90.335938 42.320312 91 43.773438 C 95.441406 53.925781 94.125 65.675781 87.550781 74.59375 L 87.429688 74.59375 C 87.367188 74.65625 87.429688 74.714844 87.492188 74.65625 C 87.609375 74.59375 87.550781 74.714844 87.367188 74.957031 C 87.1875 75.140625 87.1875 75.140625 86.824219 74.414062 C 86.15625 73.113281 85.410156 71.863281 84.585938 70.660156 C 83.53125 69.027344 82.246094 67.558594 80.769531 66.296875 L 80.828125 66.238281 L 80.710938 66.238281 L 80.710938 66.296875 L 80.585938 66.179688 L 80.527344 66.117188 L 80.40625 66.054688 L 80.34375 65.996094 L 80.226562 65.9375 L 79.558594 65.269531 C 79.5 65.328125 78.773438 64.84375 78.710938 64.726562 L 78.648438 64.726562 L 78.589844 64.664062 C 78.589844 64.601562 78.589844 64.542969 78.53125 64.601562 C 78.347656 64.664062 78.40625 64 78.648438 63.574219 L 78.710938 63.332031 C 79.546875 60.996094 80.753906 58.808594 82.28125 56.855469 C 82.566406 56.417969 82.871094 55.992188 83.191406 55.582031 L 84.039062 54.613281 C 85.007812 53.523438 86.523438 52.070312 87.25 51.464844 C 88.035156 50.921875 88.15625 50.738281 88.15625 50.496094 C 88.15625 50.011719 87.550781 49.648438 87.1875 49.953125 C 86.675781 50.367188 86.171875 50.789062 85.671875 51.222656 C 83.167969 53.53125 81.023438 56.207031 79.316406 59.152344 C 78.289062 60.910156 77.078125 63.816406 77.078125 64.484375 C 77.078125 64.726562 77.257812 65.148438 77.4375 65.328125 L 77.621094 65.570312 L 77.921875 65.753906 L 78.046875 65.8125 L 78.53125 66.179688 C 79.355469 66.726562 80.109375 67.378906 80.769531 68.117188 L 80.953125 68.175781 L 80.953125 68.296875 L 81.070312 68.359375 C 81.132812 68.417969 81.195312 68.417969 81.132812 68.476562 L 81.195312 68.539062 C 81.253906 68.476562 81.738281 69.023438 81.679688 69.085938 L 81.738281 69.144531 C 82.476562 69.8125 83.109375 70.589844 83.617188 71.445312 L 83.734375 71.507812 L 83.675781 71.566406 L 83.675781 71.625 L 83.734375 71.625 L 83.976562 71.929688 L 84.160156 72.292969 L 84.21875 72.351562 C 84.28125 72.351562 84.585938 72.835938 84.523438 72.898438 L 84.585938 72.960938 C 84.644531 72.898438 84.644531 72.898438 84.644531 73.019531 L 84.644531 73.078125 C 84.765625 72.960938 85.1875 73.804688 87.066406 77.621094 C 88.882812 81.4375 91.484375 84.703125 94.515625 86.945312 C 95.726562 87.914062 95.726562 87.792969 94.875 87.792969 C 93.664062 87.734375 92.578125 87.429688 91.484375 87.007812 C 89.0625 85.976562 89.789062 88.21875 93.484375 93.179688 C 94.210938 94.148438 94.210938 94.210938 93.242188 93.726562 C 92.441406 93.347656 91.632812 92.984375 90.820312 92.636719 C 88.457031 91.660156 85.929688 91.148438 83.375 91.125 L 83.132812 91.125 L 83.25 91.183594 L 83.007812 91.183594 C 80.828125 91.242188 78.46875 91.789062 76.410156 92.757812 C 75.984375 92.9375 75.742188 93 75.925781 92.878906 L 75.984375 92.820312 L 75.925781 92.820312 L 75.867188 92.9375 L 75.625 93.121094 L 74.898438 93.605469 C 73.183594 94.65625 71.847656 96.226562 71.082031 98.085938 C 70.78125 98.632812 70.898438 99.601562 71.382812 100.75 C 73.078125 104.804688 72.71875 107.351562 70.234375 109.46875 C 68.832031 110.523438 67.027344 110.878906 65.328125 110.4375 C 64.359375 110.195312 63.089844 109.347656 62.96875 108.921875 C 62.847656 108.5 62.847656 108.5 63.390625 108.257812 L 64.179688 107.835938 L 64.542969 107.710938 L 64.601562 107.652344 L 64.90625 107.351562 C 69.085938 104.320312 67.632812 100.445312 62.304688 100.445312 C 56.1875 100.445312 55.523438 105.957031 61.394531 108.378906 C 62.179688 108.679688 61.152344 109.773438 59.578125 110.316406 C 57.035156 111.164062 53.945312 109.953125 52.859375 107.652344 C 51.890625 105.59375 52.007812 103.65625 53.28125 100.570312 C 53.644531 99.84375 53.644531 99.84375 53.585938 99.417969 C 53.402344 97.78125 53.402344 97.601562 53.28125 97.539062 L 53.21875 97.359375 L 53.160156 97.296875 L 53.039062 97.117188 C 52.433594 95.726562 50.195312 93.664062 48.316406 92.757812 C 43.957031 90.757812 39.234375 90.699219 34.210938 92.515625 C 32.894531 92.953125 31.617188 93.5 30.394531 94.148438 L 30.695312 93.789062 C 32.273438 91.726562 34.695312 87.851562 34.695312 87.25 C 34.695312 86.640625 34.328125 86.523438 33.300781 86.945312 C 31.96875 87.492188 31 87.671875 29.789062 87.792969 C 29 87.792969 29 87.851562 29.609375 87.367188 C 33.046875 84.707031 35.820312 81.289062 37.71875 77.378906 C 39.414062 73.804688 39.355469 73.929688 40.140625 72.71875 C 41.496094 70.398438 43.285156 68.363281 45.410156 66.722656 C 45.675781 66.503906 45.9375 66.28125 46.195312 66.058594 C 47.648438 65.148438 47.710938 64.785156 47.226562 63.273438 C 46.636719 61.726562 45.925781 60.230469 45.109375 58.792969 C 43.179688 55.578125 40.746094 52.695312 37.902344 50.253906 C 37.296875 49.710938 36.992188 49.648438 36.632812 50.070312 C 36.328125 50.4375 36.390625 50.679688 37.359375 51.464844 C 41.457031 54.808594 44.542969 59.234375 46.257812 64.242188 C 46.257812 64.484375 46.320312 64.484375 45.226562 65.269531 C 42.382812 67.414062 40.046875 70.167969 38.386719 73.320312 L 38.144531 73.503906 L 38.144531 73.5625 L 37.84375 74.351562 C 37.417969 75.140625 37.417969 75.140625 37.117188 74.714844 L 36.75 74.230469 C 35.480469 72.464844 34.425781 70.554688 33.601562 68.539062 L 33.421875 68.234375 L 33.058594 67.207031 C 30.046875 59.269531 30.441406 50.441406 34.148438 42.804688 Z M 34.570312 42.746094 L 34.511719 42.804688 L 34.570312 42.804688 Z M 44.925781 42.804688 L 44.867188 42.867188 L 44.925781 42.867188 Z M 73.382812 43.046875 L 73.320312 43.109375 L 73.382812 43.109375 Z M 32.515625 43.230469 L 32.453125 43.289062 L 32.515625 43.289062 Z M 38.445312 43.230469 L 38.386719 43.289062 L 38.445312 43.289062 Z M 73.320312 43.230469 L 73.261719 43.289062 L 73.320312 43.289062 Z M 73.382812 43.230469 L 73.382812 43.289062 L 73.445312 43.351562 L 73.445312 43.230469 Z M 32.332031 43.230469 L 32.332031 43.53125 L 32.390625 43.351562 Z M 86.097656 43.414062 L 86.039062 43.472656 L 86.097656 43.472656 Z M 92.695312 43.414062 L 92.578125 43.472656 L 92.695312 43.472656 L 92.757812 43.414062 Z M 18.769531 44.804688 L 18.710938 44.925781 L 18.769531 45.109375 Z M 43.957031 44.867188 L 43.898438 44.867188 L 43.957031 45.046875 L 44.015625 45.046875 Z M 18.953125 45.046875 L 18.890625 45.109375 L 18.953125 45.109375 Z M 18.828125 45.167969 L 18.769531 45.226562 L 18.828125 45.226562 Z M 43.957031 45.167969 L 43.957031 45.46875 C 44.015625 45.53125 44.015625 45.53125 44.015625 45.351562 Z M 82.707031 45.835938 L 82.648438 45.894531 L 82.707031 45.894531 Z M 30.210938 45.894531 L 30.152344 45.953125 L 30.210938 45.953125 Z M 42.320312 45.953125 L 42.261719 46.015625 L 42.320312 46.015625 Z M 93.605469 46.015625 L 93.546875 46.078125 L 93.605469 46.078125 Z M 82.34375 46.078125 L 82.28125 46.136719 L 82.34375 46.136719 Z M 94.332031 46.078125 L 94.273438 46.136719 L 94.332031 46.136719 Z M 93.363281 46.136719 L 93.304688 46.195312 L 93.363281 46.195312 Z M 82.222656 46.195312 L 82.164062 46.257812 L 82.222656 46.257812 Z M 94.332031 46.195312 L 94.273438 46.257812 L 94.332031 46.257812 Z M 82.039062 46.320312 L 81.921875 46.378906 L 81.921875 46.4375 L 82.039062 46.378906 Z M 93.546875 46.320312 L 93.546875 46.378906 L 93.605469 46.378906 L 93.605469 46.320312 Z M 104.261719 47.53125 L 104.203125 47.53125 L 104.261719 47.589844 L 104.320312 47.53125 Z M 104.320312 47.773438 L 104.261719 47.832031 L 104.320312 47.832031 Z M 101.898438 50.496094 L 101.839844 50.554688 L 101.898438 50.554688 Z M 25.007812 52.492188 L 24.945312 52.554688 L 25.007812 52.554688 Z M 73.320312 52.976562 L 73.261719 53.039062 L 73.320312 53.039062 Z M 73.261719 53.160156 L 73.203125 53.21875 L 73.261719 53.21875 Z M 73.019531 53.28125 L 72.960938 53.28125 L 73.019531 53.34375 L 73.078125 53.28125 Z M 73.078125 53.402344 L 73.019531 53.402344 L 72.960938 53.703125 C 72.960938 54.070312 73.019531 54.007812 73.078125 53.644531 Z M 51.523438 53.460938 L 51.523438 53.523438 L 51.648438 53.585938 L 51.585938 53.460938 Z M 51.949219 53.828125 L 51.890625 53.886719 L 51.949219 53.886719 Z M 51.707031 53.886719 L 51.648438 53.945312 L 51.707031 53.945312 Z M 51.890625 53.945312 L 51.890625 54.128906 C 51.949219 54.1875 51.949219 54.1875 51.949219 54.070312 Z M 73.019531 54.007812 L 72.960938 54.070312 L 73.019531 54.070312 Z M 72.960938 54.128906 L 72.898438 54.1875 L 72.960938 54.1875 Z M 27.488281 54.3125 L 27.488281 54.371094 L 27.546875 54.429688 L 27.546875 54.3125 Z M 72.59375 55.097656 L 72.535156 55.15625 L 72.59375 55.15625 Z M 95.785156 55.28125 L 95.726562 55.339844 L 95.785156 55.339844 Z M 29.425781 55.523438 L 29.367188 55.523438 L 29.425781 55.582031 L 29.484375 55.523438 Z M 95.542969 55.523438 L 95.484375 55.523438 L 95.542969 55.582031 L 95.601562 55.523438 Z M 29.484375 55.640625 L 29.425781 55.703125 L 29.484375 55.703125 Z M 72.351562 55.703125 L 72.292969 55.765625 L 72.351562 55.765625 Z M 72.292969 55.824219 L 72.234375 55.882812 L 72.234375 55.945312 L 72.292969 55.882812 Z M 62.121094 55.882812 L 62.0625 55.945312 L 62.121094 55.945312 Z M 62.421875 55.882812 L 62.363281 55.945312 L 62.421875 55.945312 Z M 52.492188 55.882812 L 52.492188 55.945312 L 52.554688 56.007812 L 52.554688 55.882812 Z M 72.109375 55.945312 L 72.050781 56.007812 L 72.109375 56.007812 Z M 61.757812 56.007812 L 61.695312 56.066406 L 61.757812 56.066406 Z M 62.304688 56.007812 L 62.242188 56.066406 L 62.304688 56.066406 Z M 62.847656 56.007812 L 62.789062 56.066406 L 62.847656 56.066406 Z M 72.109375 56.066406 L 72.050781 56.066406 L 72.109375 56.125 L 72.171875 56.066406 Z M 72.050781 56.367188 L 71.992188 56.429688 L 71.992188 56.492188 L 72.050781 56.429688 Z M 68.117188 56.609375 L 68.054688 56.671875 L 68.117188 56.671875 Z M 55.640625 56.792969 L 55.582031 56.851562 L 55.640625 56.851562 Z M 55.339844 56.851562 L 55.28125 56.851562 L 55.339844 56.914062 L 55.398438 56.851562 Z M 55.15625 56.851562 L 55.15625 56.914062 L 55.21875 56.976562 L 55.21875 56.851562 Z M 69.386719 56.914062 L 69.328125 56.976562 L 69.386719 56.976562 Z M 69.628906 56.976562 L 69.570312 57.035156 L 69.628906 57.035156 Z M 69.75 56.976562 L 69.6875 57.035156 L 69.75 57.035156 Z M 69.929688 56.976562 L 69.871094 57.035156 L 69.871094 57.09375 L 69.929688 57.035156 Z M 70.234375 57.09375 L 70.171875 57.15625 L 70.234375 57.15625 Z M 71.445312 57.15625 L 71.382812 57.21875 L 71.445312 57.21875 Z M 53.886719 57.277344 L 53.828125 57.335938 L 53.886719 57.335938 Z M 71.445312 57.277344 L 71.382812 57.335938 L 71.382812 57.398438 L 71.507812 57.335938 Z M 70.898438 57.335938 L 70.839844 57.398438 L 70.898438 57.398438 Z M 71.324219 57.460938 L 71.265625 57.519531 L 71.324219 57.519531 Z M 29.726562 57.820312 L 29.667969 57.882812 L 29.726562 57.882812 Z M 79.800781 57.945312 L 79.800781 58.003906 L 79.859375 58.0625 L 79.859375 57.945312 Z M 55.765625 58.246094 L 55.703125 58.304688 L 55.765625 58.304688 Z M 70.539062 58.671875 L 70.539062 58.730469 L 70.597656 58.851562 L 70.597656 58.730469 Z M 45.652344 59.457031 L 45.59375 59.515625 L 45.652344 59.515625 Z M 69.628906 60.484375 L 69.570312 60.546875 L 69.628906 60.546875 Z M 54.070312 61.515625 L 54.007812 61.578125 L 54.070312 61.578125 Z M 30.394531 62.90625 L 30.335938 62.96875 L 30.394531 62.96875 Z M 45.835938 63.332031 L 45.835938 63.390625 L 45.894531 63.453125 L 45.894531 63.332031 Z M 45.894531 63.515625 L 45.835938 63.574219 L 45.894531 63.574219 Z M 76.953125 63.757812 L 76.894531 63.816406 L 76.953125 63.816406 Z M 76.894531 64.300781 L 76.894531 64.359375 L 77.015625 64.421875 L 76.953125 64.300781 Z M 76.953125 64.96875 L 76.894531 65.027344 L 76.953125 65.027344 Z M 77.4375 65.390625 L 77.378906 65.453125 L 77.4375 65.511719 L 77.5 65.453125 Z M 31.121094 65.570312 L 31.0625 65.632812 L 31.121094 65.632812 Z M 93.605469 65.996094 L 93.546875 66.054688 L 93.605469 66.054688 Z M 31.304688 66.238281 L 31.304688 66.296875 L 31.363281 66.359375 L 31.363281 66.238281 Z M 43.472656 66.539062 L 43.414062 66.601562 L 43.472656 66.601562 Z M 31.546875 66.601562 L 31.546875 66.664062 L 31.484375 66.664062 Z M 93.179688 66.84375 L 93.121094 66.90625 L 93.121094 66.964844 L 93.242188 66.90625 Z M 31.363281 66.90625 L 31.363281 66.964844 L 31.421875 67.085938 L 31.421875 66.964844 Z M 44.742188 67.390625 L 44.625 67.449219 L 44.683594 67.507812 L 44.742188 67.449219 Z M 31.726562 67.507812 L 31.664062 67.570312 L 31.726562 67.570312 Z M 44.257812 67.933594 L 44.199219 67.992188 L 44.257812 67.992188 Z M 43.898438 68.296875 L 43.835938 68.359375 L 43.898438 68.359375 Z M 43.714844 68.359375 L 43.65625 68.359375 L 43.714844 68.417969 L 43.773438 68.359375 Z M 32.210938 68.78125 L 32.210938 68.84375 L 32.273438 68.902344 L 32.273438 68.78125 Z M 32.453125 68.960938 L 32.453125 69.023438 L 32.390625 69.023438 Z M 32.332031 69.328125 L 32.332031 69.386719 L 32.390625 69.507812 L 32.390625 69.386719 Z M 32.390625 69.628906 L 32.332031 69.6875 L 32.390625 69.6875 Z M 32.390625 69.75 L 32.332031 69.8125 L 32.390625 69.8125 Z M 32.390625 69.871094 L 32.332031 69.929688 L 32.390625 69.929688 Z M 32.816406 69.871094 L 32.816406 69.929688 L 32.757812 69.929688 Z M 91.667969 70.414062 L 91.609375 70.476562 L 91.667969 70.476562 Z M 84.765625 70.476562 L 84.703125 70.539062 L 84.765625 70.539062 Z M 33.242188 70.960938 L 33.242188 71.023438 L 33.300781 71.140625 L 33.300781 71.023438 Z M 39.597656 71.023438 L 39.539062 71.082031 L 39.597656 71.082031 Z M 89.488281 71.324219 L 89.429688 71.382812 L 89.488281 71.382812 Z M 39.054688 71.445312 L 39.054688 71.507812 L 39.113281 71.566406 L 39.113281 71.445312 Z M 89.488281 71.507812 L 89.429688 71.566406 L 89.488281 71.566406 Z M 35.601562 71.566406 L 35.539062 71.625 L 35.601562 71.625 Z M 33.726562 71.808594 L 33.726562 71.867188 L 33.785156 71.929688 L 33.785156 71.808594 Z M 84.101562 72.171875 L 83.976562 72.234375 L 84.101562 72.234375 L 84.160156 72.171875 Z M 34.085938 72.476562 L 34.027344 72.535156 L 34.085938 72.535156 Z M 34.453125 72.898438 L 34.453125 72.960938 L 34.390625 72.960938 Z M 90.398438 72.898438 L 90.335938 72.960938 L 90.398438 72.960938 Z M 90.273438 72.960938 L 90.214844 73.019531 L 90.273438 73.019531 Z M 90.214844 73.078125 L 90.15625 73.078125 L 90.214844 73.140625 L 90.273438 73.078125 Z M 90.214844 73.203125 L 90.15625 73.203125 L 90.214844 73.261719 L 90.273438 73.203125 Z M 34.753906 73.625 L 34.695312 73.6875 L 34.753906 73.6875 Z M 37.660156 74.472656 L 37.601562 74.53125 L 37.660156 74.53125 Z M 35.539062 74.957031 L 35.480469 75.015625 L 35.539062 75.015625 Z M 36.449219 75.804688 L 36.449219 75.867188 L 36.390625 75.867188 Z M 88.761719 75.804688 L 88.703125 75.867188 L 88.761719 75.867188 Z M 36.632812 76.59375 L 36.570312 76.652344 L 36.632812 76.652344 Z M 88.335938 76.953125 L 88.277344 77.015625 L 88.335938 77.015625 Z M 36.390625 77.136719 L 36.328125 77.195312 L 36.390625 77.195312 Z M 37.960938 77.136719 L 37.902344 77.195312 L 37.960938 77.195312 Z M 35.480469 78.773438 L 35.421875 78.832031 L 35.480469 78.832031 Z M 35.238281 79.074219 L 35.179688 79.074219 L 35.238281 79.132812 L 35.296875 79.074219 Z M 89.429688 79.132812 L 89.367188 79.195312 L 89.429688 79.195312 Z M 35.296875 79.195312 L 35.238281 79.257812 L 35.296875 79.257812 Z M 48.4375 80.890625 C 46.742188 80.828125 44.742188 81.195312 44.382812 81.617188 C 43.957031 82.101562 44.625 82.648438 45.289062 82.40625 C 45.953125 82.164062 46.136719 82.222656 46.195312 82.648438 C 46.5625 86.460938 48.921875 88.519531 52.976562 88.519531 C 54.613281 88.519531 54.796875 88.578125 55.097656 89.125 C 55.398438 89.609375 56.429688 89.367188 56.429688 88.882812 C 56.066406 84.765625 53.585938 81.738281 50.011719 81.011719 C 49.585938 80.890625 49.042969 80.890625 48.4375 80.890625 Z M 76.046875 80.890625 C 71.625 81.070312 68.78125 83.917969 68.175781 88.945312 C 68.175781 89.429688 69.203125 89.488281 69.507812 89.0625 C 69.992188 88.519531 70.054688 88.519531 71.445312 88.578125 C 75.382812 88.703125 78.289062 86.339844 78.46875 82.828125 L 78.53125 82.222656 L 79.015625 82.34375 C 79.742188 82.523438 80.101562 82.464844 80.285156 82.101562 C 80.527344 81.617188 80.226562 81.375 79.132812 81.195312 C 78.121094 80.980469 77.085938 80.878906 76.046875 80.890625 Z M 48.316406 82.039062 C 51.464844 81.980469 53.945312 83.796875 54.796875 86.765625 C 54.976562 87.492188 54.976562 87.609375 54.671875 87.492188 C 54.492188 87.367188 54.3125 87.367188 52.734375 87.429688 C 49.953125 87.492188 47.890625 85.855469 47.40625 83.3125 C 47.164062 82.039062 47.164062 82.039062 48.316406 82.039062 Z M 76.226562 82.039062 C 77.5625 82.039062 77.5625 82.039062 77.195312 83.617188 C 76.53125 86.15625 74.773438 87.367188 71.6875 87.429688 L 69.929688 87.492188 C 69.570312 87.671875 69.570312 87.671875 69.75 87.066406 C 70.539062 83.917969 73.019531 82.039062 76.226562 82.039062 Z M 41.960938 91.0625 L 41.898438 91.0625 L 41.960938 91.125 L 42.019531 91.0625 Z M 40.929688 91.0625 L 40.808594 91.0625 L 41.171875 91.125 L 41.59375 91.0625 Z M 94.089844 91.910156 Z M 41.898438 92.394531 C 46.5625 92.578125 50.738281 94.757812 52.375 98.265625 C 52.675781 98.992188 52.734375 98.875 52.191406 100.085938 C 50.796875 103.414062 50.617188 105.351562 51.523438 107.59375 C 51.648438 107.953125 51.648438 107.953125 51.34375 107.710938 L 50.496094 107.226562 L 49.527344 106.625 C 46.65625 104.949219 43.683594 103.453125 40.628906 102.144531 C 38.175781 101.03125 35.644531 100.097656 33.058594 99.359375 C 32.632812 99.359375 33.90625 98.632812 35.539062 97.90625 C 36.875 97.359375 37.117188 96.996094 36.507812 96.511719 C 35.964844 96.085938 32.695312 95.484375 31.121094 95.484375 C 29.851562 95.484375 34.148438 93.605469 37.117188 92.878906 C 38.6875 92.453125 40.324219 92.335938 41.898438 92.394531 Z M 82.648438 92.394531 C 84.148438 92.316406 85.65625 92.441406 87.128906 92.757812 C 89.125 93.179688 92.394531 94.453125 93.664062 95.242188 C 94.03125 95.542969 94.03125 95.542969 92.820312 95.542969 C 88.21875 95.726562 86.640625 96.875 89.367188 98.023438 C 90.882812 98.691406 91.789062 99.175781 91.667969 99.359375 L 90.882812 99.539062 L 88.519531 100.265625 C 86.222656 101.074219 83.996094 102.066406 81.859375 103.234375 L 80.890625 103.65625 C 78.210938 104.917969 75.585938 106.292969 73.019531 107.773438 C 73.929688 106.078125 73.804688 103.777344 72.65625 100.871094 C 71.929688 98.875 71.929688 98.933594 72.234375 98.328125 C 73.6875 94.9375 77.863281 92.695312 82.648438 92.394531 Z M 93.304688 93.304688 C 93.242188 93.242188 93.242188 93.304688 93.242188 93.363281 L 93.421875 93.363281 L 93.363281 93.304688 Z M 94.390625 96.632812 L 94.390625 96.695312 L 94.332031 96.695312 Z M 95.058594 96.632812 L 95.117188 96.632812 L 95.058594 96.695312 L 95 96.632812 Z M 29.183594 96.695312 L 29.0625 96.695312 C 29 96.753906 29.0625 96.753906 29.125 96.753906 C 29.242188 96.753906 29.304688 96.753906 29.242188 96.695312 Z M 93.421875 96.695312 L 93.363281 96.695312 C 93.304688 96.753906 93.363281 96.753906 93.421875 96.753906 C 93.484375 96.753906 93.546875 96.753906 93.484375 96.695312 Z M 95.726562 96.695312 L 95.601562 96.695312 C 95.542969 96.753906 95.601562 96.753906 95.726562 96.753906 C 95.84375 96.753906 95.90625 96.753906 95.84375 96.695312 Z M 31.90625 96.753906 L 31.847656 96.8125 L 31.90625 96.8125 Z M 93.121094 96.753906 L 93.0625 96.8125 L 93.121094 96.8125 Z M 33.785156 97.117188 L 33.726562 97.179688 L 33.785156 97.238281 L 33.84375 97.179688 Z M 91.242188 97.117188 L 91.183594 97.179688 L 91.242188 97.179688 Z M 33.601562 97.117188 L 33.601562 97.179688 L 33.664062 97.296875 L 33.664062 97.179688 Z M 31.789062 98.207031 L 31.726562 98.265625 L 31.789062 98.265625 Z M 31.664062 98.265625 L 31.605469 98.328125 L 31.664062 98.328125 Z M 31.363281 98.875 L 31.363281 98.933594 L 31.304688 98.933594 Z M 31.484375 100.328125 L 31.421875 100.386719 L 31.484375 100.386719 Z M 31.726562 100.328125 L 31.605469 100.386719 C 31.546875 100.445312 31.605469 100.445312 31.726562 100.445312 L 31.90625 100.386719 Z M 32.03125 100.386719 L 31.96875 100.445312 L 32.03125 100.445312 Z M 34.753906 101.296875 C 34.695312 101.296875 34.632812 101.296875 34.695312 101.355469 L 34.8125 101.414062 L 34.9375 101.355469 Z M 62.664062 101.597656 C 67.085938 101.78125 67.328125 105.171875 63.089844 107.167969 C 62.179688 107.59375 61.636719 107.410156 60 106.140625 C 57.035156 103.835938 58.429688 101.476562 62.664062 101.597656 Z M 52.976562 101.78125 L 52.917969 101.839844 L 52.976562 101.839844 Z M 87.671875 101.960938 L 87.609375 102.023438 C 87.550781 102.082031 87.550781 102.082031 87.734375 102.082031 C 87.914062 102.082031 87.914062 102.082031 87.792969 102.023438 Z M 87.792969 102.203125 L 87.734375 102.265625 L 87.792969 102.265625 Z M 87.914062 102.203125 L 87.851562 102.265625 L 87.914062 102.265625 Z M 37.234375 102.265625 L 37.175781 102.324219 L 37.234375 102.324219 Z M 39.476562 103.234375 L 39.414062 103.292969 L 39.476562 103.292969 Z M 39.65625 103.234375 L 39.597656 103.234375 L 39.597656 103.292969 L 39.71875 103.234375 Z M 41.351562 103.898438 L 41.292969 103.960938 L 41.414062 104.019531 C 41.476562 104.019531 41.535156 104.019531 41.476562 103.960938 Z M 41.476562 104.203125 L 41.292969 104.261719 L 41.535156 104.261719 C 41.71875 104.261719 41.71875 104.261719 41.59375 104.203125 C 41.558594 104.175781 41.519531 104.152344 41.476562 104.140625 Z M 67.390625 104.746094 L 67.328125 104.804688 L 67.390625 104.804688 Z M 74.230469 108.5625 L 74.230469 108.621094 L 74.289062 108.679688 L 74.289062 108.5625 Z M 73.929688 108.863281 L 73.867188 108.921875 L 73.929688 108.921875 Z M 73.625 108.984375 L 73.625 109.046875 L 73.6875 109.105469 L 73.6875 108.984375 Z M 73.804688 108.984375 L 73.804688 109.046875 L 73.867188 109.105469 C 73.929688 109.105469 73.929688 109.046875 73.804688 109.046875 Z M 52.132812 109.773438 L 52.070312 109.832031 L 52.132812 109.832031 Z M 62.304688 110.015625 L 62.605469 110.195312 C 63.757812 111.285156 65.085938 111.710938 66.90625 111.710938 C 68.660156 111.710938 66.664062 113.28125 64.300781 113.765625 C 61.636719 114.3125 58.972656 113.707031 57.15625 112.195312 C 56.492188 111.710938 56.492188 111.710938 57.398438 111.769531 C 59.214844 111.828125 60.910156 111.285156 62 110.195312 Z M 71.324219 110.859375 L 71.265625 110.921875 L 71.324219 110.921875 Z M 68.902344 112.738281 L 68.84375 112.796875 L 68.902344 112.796875 Z M 69.085938 112.921875 L 69.023438 112.980469 L 69.085938 112.980469 Z M 56.792969 113.828125 L 56.734375 113.890625 L 56.792969 113.890625 Z M 56.914062 113.890625 L 56.851562 113.890625 L 56.914062 113.949219 L 56.976562 113.890625 Z M 56.914062 113.890625 "/>
</g>
</svg>
